HIERARCHY
ROOT pelvis
{
  OFFSET 0 100 0
  CHANNELS 6 Xposition Yposition Zposition Zrotation Xrotation Yrotation
  JOINT pelvis_right_femur
  {
    OFFSET -10.78128 -3.44521 -0.5502486
    CHANNELS 3 Zrotation Xrotation Yrotation
    JOINT right_femur_tibia
    {
      OFFSET -0.8047443 -44.0398 -0.1307829
      CHANNELS 3 Zrotation Xrotation Yrotation
      JOINT right_tibia_foot
      {
        OFFSET 3.006224 -47.83518 -5
        CHANNELS 3 Zrotation Xrotation Yrotation
        End Site
        {
          OFFSET 0 -5 15
        }
      }
    }
  }
  JOINT pelvis_left_femur
  {
    OFFSET 10.78128 -3.44521 -0.5502486
    CHANNELS 3 Zrotation Xrotation Yrotation
    JOINT left_femur_tibia
    {
      OFFSET 0.8047443 -44.0398 -0.1307829
      CHANNELS 3 Zrotation Xrotation Yrotation
      JOINT left_tibia_foot
      {
        OFFSET -4.370144 -48.10324 -4.275266
        CHANNELS 3 Zrotation Xrotation Yrotation
        End Site
        {
          OFFSET 0 -5 15
        }
      }
    }
  }
  JOINT pelvis_spine1
  {
    OFFSET 0 6.468898 -3.129235
    CHANNELS 3 Zrotation Xrotation Yrotation
    JOINT spine1
    {
      OFFSET 0 23.15396 4.99043
      CHANNELS 3 Zrotation Xrotation Yrotation
      JOINT spine2
      {
        OFFSET 0 20.79997 -5.064912
        CHANNELS 3 Zrotation Xrotation Yrotation
        JOINT neck
        {
          OFFSET 0 14.38658 9.616178
          CHANNELS 3 Zrotation Xrotation Yrotation
          End Site
          {
            OFFSET 0 20 0
          }
        }
      }
      JOINT right_manubrium
      {
        OFFSET -5.722621 16.35077 3.967754
        CHANNELS 3 Zrotation Xrotation Yrotation
        JOINT right_clavicle
        {
          OFFSET -13.16364 1.694482 -4.693211
          CHANNELS 3 Zrotation Xrotation Yrotation
          JOINT right_humerus
          {
            OFFSET -28.5034 -0.3100689 -2.792744
            CHANNELS 3 Zrotation Xrotation Yrotation
            JOINT right_radius
            {
              OFFSET -25.15693 0.02248979 -1.271978
              CHANNELS 3 Zrotation Xrotation Yrotation
              End Site
              {
                OFFSET -15 0 0
              }
            }
          }
        }
      }
      JOINT left_manubrium
      {
        OFFSET 5.722621 16.35077 3.967754
        CHANNELS 3 Zrotation Xrotation Yrotation
        JOINT left_clavicle
        {
          OFFSET 13.16364 1.694482 -4.693211
          CHANNELS 3 Zrotation Xrotation Yrotation
          JOINT left_humerus
          {
            OFFSET 29.39168 -1.063119 -2.237045
            CHANNELS 3 Zrotation Xrotation Yrotation
            JOINT left_radius
            {
              OFFSET 24.59957 -0.9528479 0.9047498
              CHANNELS 3 Zrotation Xrotation Yrotation
              End Site
              {
                OFFSET 15 -0 -0
              }
            }
          }
        }
      }
    }
  }
}
MOTION
Frames: 15
Frame Time: 0.0416666666667
0 103.5113 0 0.4245088 1.956766 0.4695345 3.156322 -15.89949 7.399766 2.716961e-09 31.30629 -4.74141e-09 -4.461186 -14.39758 -1.508612 -6.626983 4.063006 -19.98989 -1.216073e-08 -0.4060105 -7.601211e-09 3.445031 -19.18177 22.28859 -3.76403 -2.044417 4.738356 2.376788 7.976561 -7.590912 0.4547376 21.23491 8.313318 4.269795 -24.82589 8.853048 7.298501 -19.71286 11.66564 83.74985 38.99369 -16.43161 2.25339e-09 2.379323e-09 18.26692 -9.421399 9.48248 7.318605 5.877412 -18.76066 -1.159399 -96.06463 30.36119 24.55327 -4.56089e-09 -1.188062e-09 -17.50822 1.269672 13.41493 12.8553
0.6211346 103.0005 2.685194 0.4918835 1.879703 1.030762 2.988741 -17.4154 7.432258 2.741691e-09 32.92519 -4.849591e-09 -4.185901 -13.71221 -1.852152 -6.805542 5.826468 -20.23177 -1.372321e-08 -0.6313285 -8.153392e-09 3.306075 -19.86515 22.23779 -3.91052 -1.972138 4.505463 2.385933 7.865485 -7.714794 0.485798 21.37568 8.43858 4.336448 -24.74853 8.987536 7.441425 -19.27209 11.57394 84.49105 39.07575 -17.19616 2.067851e-09 2.256174e-09 17.7019 -9.361377 9.396196 7.146037 5.979238 -18.82809 -1.195028 -95.87894 30.73149 23.68519 -4.477472e-09 -1.227726e-09 -17.94615 1.166295 13.26397 13.04789
1.227842 102.5194 5.396864 0.4893214 1.853547 1.64065 2.983877 -19.16914 7.353044 2.485333e-09 33.46578 -4.820857e-09 -4.168119 -13.05054 -2.137605 -6.870565 7.665438 -20.37744 -1.492165e-08 -0.4961002 -9.014381e-09 3.250502 -20.43741 22.07743 -3.963428 -1.946616 4.256964 2.443871 7.829096 -7.890356 0.5048876 21.46095 8.525107 4.381114 -24.7491 9.087463 7.469388 -18.89215 11.50929 85.2988 39.0204 -18.13637 1.918923e-09 2.160657e-09 16.97685 -9.255959 9.347342 6.920995 6.095291 -19.07361 -1.291763 -95.47474 30.91387 22.73428 -4.404398e-09 -1.25992e-09 -18.63164 1.30304 13.29596 12.92078
1.800517 102.0406 8.111741 0.4020346 1.901361 2.25784 3.166118 -21.04175 7.162853 1.932245e-09 32.68907 -4.648816e-09 -4.454727 -12.49313 -2.315172 -6.804206 9.415946 -20.41432 -1.559085e-08 -0.003667786 -1.016348e-08 3.312097 -20.83021 21.81089 -3.905576 -1.981434 4.013297 2.556834 7.877704 -8.110393 0.5059259 21.46535 8.560333 4.397128 -24.84655 9.138126 7.367189 -18.61965 11.48244 86.0676 38.82901 -19.17036 1.832676e-09 2.110755e-09 16.13986 -9.089749 9.342368 6.651878 6.215599 -19.49705 -1.444544 -94.84745 30.85907 21.78617 -4.359545e-09 -1.282787e-09 -19.53292 1.710576 13.53807 12.42634
2.317688 101.5436 10.83189 0.2503176 1.963008 2.847735 3.500681 -23.01946 6.88899 1.120489e-09 30.87349 -4.350346e-09 -4.973585 -11.97074 -2.438187 -6.63109 11.12974 -20.33049 -1.57392e-08 1.001385 -1.147635e-08 3.401928 -21.06689 21.43158 -3.749719 -2.053496 3.772601 2.706893 8.006326 -8.36776 0.5009238 21.42888 8.549461 4.389352 -24.99891 9.14803 7.148267 -18.41313 11.48804 86.9078 38.4764 -20.33934 1.779018e-09 2.081504e-09 15.17601 -8.91819 9.38546 6.349171 6.340617 -20.08386 -1.657444 -94.07041 30.60753 20.79949 -4.303436e-09 -1.286504e-09 -20.64921 2.325813 13.92467 11.65883
2.767452 101.0129 13.54649 0.04756805 2.056407 3.37859 3.944232 -24.84383 6.5739 1.865131e-10 28.194 -4.014198e-09 -5.662928 -11.57815 -2.4697 -6.374793 12.56728 -20.1458 -1.534385e-08 2.302319 -1.282718e-08 3.534803 -21.10743 20.9827 -3.517341 -2.15867 3.564387 2.879899 8.18537 -8.625912 0.486096 21.32699 8.491133 4.355452 -25.18432 9.108469 6.845239 -18.29352 11.51647 87.57431 38.03418 -21.42473 1.776113e-09 2.084564e-09 14.21222 -8.724371 9.459007 6.039939 6.447721 -20.73623 -1.892916 -93.16146 30.18674 19.89563 -4.257799e-09 -1.274419e-09 -21.8107 3.08308 14.39788 10.69015
3.139232 100.4505 16.27862 -0.1647558 2.109921 3.833261 4.436622 -26.53776 6.275737 -8.185073e-10 25.20517 -3.650605e-09 -6.372462 -11.22084 -2.508486 -6.085996 13.85813 -19.86572 -1.450439e-08 4.090496 -1.404887e-08 3.568512 -21.01837 20.46317 -3.244434 -2.255078 3.381101 3.04993 8.388617 -8.876127 0.4781056 21.22161 8.40561 4.310577 -25.33726 9.040604 6.512605 -18.17067 11.55329 88.22803 37.52146 -22.50072 1.775203e-09 2.084999e-09 13.22537 -8.565093 9.561472 5.728658 6.540092 -21.40863 -2.142689 -92.23073 29.70832 18.9857 -4.167087e-09 -1.233778e-09 -23.00747 3.847057 14.83724 9.711156
3.436984 99.87227 19.06479 -0.342333 2.072769 4.208292 4.885403 -27.83864 6.036684 -1.751524e-09 22.48694 -3.287946e-09 -6.947812 -10.88386 -2.588905 -5.816488 14.85479 -19.49422 -1.333517e-08 6.237934 -1.490323e-08 3.427669 -20.80735 19.91737 -2.973106 -2.310143 3.242507 3.176974 8.579127 -9.070952 0.4879343 21.13737 8.299968 4.257958 -25.3838 8.94994 6.195985 -18.01539 11.5778 88.76645 36.97575 -23.40576 1.751472e-09 2.063367e-09 12.32418 -8.495574 9.675384 5.459511 6.600836 -21.98165 -2.376702 -91.3546 29.26315 18.11566 -4.009346e-09 -1.164826e-09 -24.05863 4.458334 15.13217 8.919771
3.675141 99.31791 21.98315 -0.430727 1.857602 4.513654 5.21869 -28.56756 5.932263 -2.566341e-09 20.69951 -2.859698e-09 -7.190606 -10.52335 -2.812334 -5.622538 15.50874 -19.01381 -1.185279e-08 9.006928 -1.507473e-08 2.926282 -20.48697 19.36433 -2.743553 -2.269997 3.168069 3.219655 8.727806 -9.178188 0.5357468 21.14722 8.191187 4.214065 -25.23845 8.85343 5.966806 -17.75156 11.58031 89.31986 36.43415 -24.13824 1.657e-09 1.987367e-09 11.56262 -8.60242 9.807785 5.264308 6.623181 -22.36734 -2.572087 -90.71654 28.9915 17.2636 -3.71816e-09 -1.047032e-09 -24.87496 4.703441 15.13677 8.599263
3.876899 98.83991 25.11073 -0.4127546 1.460807 4.763965 5.404082 -28.51128 5.989063 -3.233053e-09 20.0043 -2.327531e-09 -7.020776 -10.19201 -3.181951 -5.514838 15.64603 -18.40159 -1.004098e-08 12.39198 -1.443606e-08 2.019733 -19.9993 18.81091 -2.569062 -2.117499 3.178208 3.159438 8.806041 -9.162865 0.6244313 21.23097 8.07264 4.176165 -24.84954 8.737876 5.853807 -17.35645 11.54334 89.68864 35.94884 -24.5446 1.49316e-09 1.858289e-09 11.0081 -8.880001 9.946149 5.155123 6.588741 -22.47473 -2.700687 -90.25413 28.93765 16.44183 -3.285553e-09 -8.724278e-10 -25.33061 4.491349 14.78022 8.845815
4.060335 98.49008 28.51804 -0.311763 0.9127797 4.963579 5.501085 -27.67922 6.201107 -3.842666e-09 20.02996 -1.652419e-09 -6.511427 -9.966694 -3.673136 -5.451707 15.20411 -17.63301 -7.740928e-09 16.56662 -1.312281e-08 0.731577 -19.27686 18.24653 -2.421275 -1.866284 3.284254 3.014545 8.834041 -9.038573 0.7478115 21.3707 7.934136 4.142575 -24.25081 8.591669 5.841321 -16.85956 11.48286 89.88384 35.52493 -24.66554 1.284586e-09 1.69352e-09 10.64743 -9.30074 10.10832 5.118108 6.497709 -22.34706 -2.767947 -89.9539 29.05755 15.6795 -2.719325e-09 -6.292709e-10 -25.48406 3.889089 14.09768 9.576724
4.232413 98.31228 32.26246 -0.1825452 0.2807295 5.085167 5.642654 -25.96803 6.570783 -4.536937e-09 19.94416 -8.040983e-10 -5.83036 -10.07113 -4.205664 -5.337689 13.91003 -16.65725 -4.430031e-09 21.90722 -1.14006e-08 -0.8799614 -18.1461 17.67297 -2.236653 -1.549288 3.533882 2.822817 8.864178 -8.827208 0.8898678 21.53579 7.753056 4.109803 -23.53214 8.388077 5.898459 -16.36712 11.44761 89.93466 35.18471 -24.54602 1.099353e-09 1.537916e-09 10.51957 -9.819353 10.34342 5.145265 6.34366 -22.0731 -2.778819 -89.90187 29.2493 15.1557 -2.044105e-09 -2.90013e-10 -25.42318 3.026634 13.17277 10.63546
4.387364 98.33901 36.36574 -0.07248115 -0.3420419 5.084043 5.893398 -23.48718 7.068617 -5.371445e-09 19.17183 1.721833e-10 -5.114554 -10.61576 -4.697647 -5.099218 11.74795 -15.48808 7.345951e-11 28.35691 -9.766651e-09 -2.687384 -16.55741 17.09803 -1.985468 -1.201523 3.924637 2.623109 8.906943 -8.554221 1.031693 21.6603 7.519982 4.073422 -22.76128 8.110808 6.004068 -15.9206 11.44762 89.70641 34.97107 -24.19055 9.884039e-10 1.427482e-09 10.59436 -10.33006 10.65053 5.196413 6.126938 -21.70137 -2.731135 -89.96267 29.43446 14.89578 -1.311449e-09 1.445809e-10 -25.21532 2.041746 12.0847 11.83633
4.536186 98.55579 40.81432 0.007869566 -0.9533342 4.921668 6.162442 -19.9644 7.552747 -6.059104e-09 17.84962 1.111687e-09 -4.498712 -11.59344 -5.00682 -4.698856 8.453483 -14.20343 5.467787e-09 34.90439 -8.439867e-09 -4.405451 -14.59527 16.71859 -1.682729 -0.8758984 4.477168 2.398184 9.011784 -8.194504 1.160963 21.76497 7.233675 4.019037 -22.04101 7.781585 6.067325 -15.76099 11.51634 89.24268 34.78394 -23.42403 9.839586e-10 1.371238e-09 11.1114 -10.94196 11.01907 5.40215 5.852488 -21.25954 -2.64493 -90.42391 29.50975 15.3023 -6.242334e-10 6.224135e-10 -24.67722 1.051684 11.02158 13.04886
4.684428 98.92313 45.54251 0.03905786 -1.482319 4.580309 6.399521 -15.85655 7.911096 -6.486339e-09 16.06715 1.876976e-09 -4.079302 -12.8089 -5.075915 -4.145976 4.481085 -12.92151 1.115579e-08 40.58684 -7.704119e-09 -5.793878 -12.50416 16.54287 -1.357698 -0.6174038 5.101945 2.170494 9.158432 -7.781369 1.262057 21.79344 6.912132 3.937222 -21.42549 7.424852 6.038438 -15.89013 11.62057 88.41849 34.57461 -22.25894 1.080129e-09 1.370228e-09 11.96016 -11.57015 11.37826 5.727523 5.548234 -20.78644 -2.542396 -90.99878 29.40737 16.22759 -7.415144e-11 1.077421e-09 -23.85145 0.2108063 10.13303 14.05358
